Coordinates
version=1
nRows=43
nColumns=12
inDegrees=yes

Units are S.I. units (second, meters, Newtons, ...)
Angles are in degrees

endheader
time	SC_y	SC_z	SC_x	AC_y	AC_z	AC_x	GH_y	GH_z	GH_yy	EL_x	PS_y
       0.0              -52.29          3.467           22.3          57.19          9.001         0.3547         -146.2          58.06          145.8          101.8          65.36
   0.01386              -52.29           3.47           22.3          57.19          8.998         0.3569         -146.2          58.06          145.8          101.8          65.37
   0.02772              -52.29          3.474           22.3          57.18          8.994         0.3593         -146.2          58.06          145.8          101.8          65.37
   0.04158              -52.29          3.477           22.3          57.18           8.99         0.3618         -146.1          58.06          145.7          101.8          65.38
   0.05544              -52.29          3.481           22.3          57.18          8.986         0.3645         -146.1          58.06          145.7          101.8          65.38
    0.0693              -52.29          3.485           22.3          57.17          8.982         0.3673         -146.1          58.06          145.7          101.8          65.39
   0.08316              -52.29          3.489           22.3          57.17          8.977         0.3703         -146.0          58.06          145.7          101.8           65.4
   0.09702              -52.29          3.494          22.29          57.17          8.972         0.3736         -146.0          58.06          145.6          101.8          65.41
    0.1109              -52.29          3.499          22.29          57.16          8.966         0.3771         -145.9          58.07          145.6          101.8          65.42
    0.1247              -52.29          3.504          22.29          57.16           8.96         0.3808         -145.9          58.07          145.6          101.8          65.42
    0.1386              -52.28           3.51          22.29          57.15          8.954         0.3848         -145.8          58.07          145.6          101.8          65.43
    0.1525              -52.28          3.516          22.29          57.15          8.947         0.3891         -145.8          58.07          145.5          101.8          65.45
    0.1663              -52.28          3.522          22.28          57.14           8.94         0.3938         -145.7          58.07          145.5          101.8          65.46
    0.1802              -52.28          3.529          22.28          57.14          8.932         0.3988         -145.6          58.07          145.5          101.8          65.47
     0.194              -52.28          3.537          22.28          57.13          8.923         0.4042         -145.6          58.08          145.4          101.8          65.48
    0.2079              -52.28          3.545          22.27          57.13          8.914         0.4101         -145.5          58.08          145.4          101.8           65.5
    0.2218              -52.27          3.554          22.27          57.12          8.904         0.4165         -145.4          58.08          145.3          101.8          65.51
    0.2356              -52.27          3.564          22.27          57.11          8.893         0.4235         -145.3          58.08          145.3          101.8          65.53
    0.2495              -52.27          3.575          22.26           57.1          8.881         0.4311         -145.2          58.09          145.2          101.8          65.55
    0.2633              -52.27          3.587          22.26          57.09          8.868         0.4394         -145.1          58.09          145.2          101.9          65.57
    0.2772              -52.26          3.599          22.25          57.08          8.853         0.4486         -145.0          58.09          145.1          101.9          65.59
    0.2911              -52.26          3.614          22.25          57.07          8.838         0.4587         -144.9           58.1          145.0          101.9          65.62
    0.3049              -52.26          3.629          22.24          57.06           8.82         0.4698         -144.7           58.1          144.9          101.9          65.64
    0.3188              -52.25          3.647          22.24          57.04          8.801         0.4821         -144.6          58.11          144.8          101.9          65.67
    0.3326              -52.25          3.666          22.23          57.03          8.779         0.4958         -144.4          58.11          144.7          101.9          65.71
    0.3465              -52.24          3.688          22.22          57.01          8.755         0.5111         -144.2          58.12          144.6          101.9          65.74
    0.3604              -52.24          3.712          22.21          56.99          8.728         0.5282         -143.9          58.13          144.5          102.0          65.79
    0.3742              -52.23          3.739           22.2          56.97          8.698         0.5475         -143.7          58.13          144.3          102.0          65.83
    0.3881              -52.22           3.77          22.19          56.94          8.663         0.5693         -143.4          58.14          144.2          102.0          65.89
     0.402              -52.21          3.804          22.17          56.91          8.624          0.594         -143.1          58.15          144.0          102.0          65.95
    0.4158               -52.2          3.844          22.16          56.88           8.58         0.6223         -142.7          58.16          143.8          102.1          66.02
    0.4297              -52.19           3.89          22.14          56.84          8.529         0.6546         -142.3          58.18          143.5          102.1           66.1
    0.4435              -52.18          3.943          22.12           56.8           8.47          0.692         -141.8          58.19          143.3          102.1          66.19
    0.4574              -52.16          4.004           22.1          56.75          8.401         0.7355         -141.2          58.21          142.9          102.2          66.29
    0.4713              -52.15          4.075          22.07          56.69          8.321         0.7863         -140.6          58.23          142.6          102.2          66.42
    0.4851              -52.13           4.16          22.04          56.62          8.227         0.8463         -139.8          58.26          142.1          102.3          66.57
     0.499               -52.1           4.26           22.0          56.54          8.114         0.9175         -138.8          58.28          141.6          102.4          66.74
    0.5128              -52.07          4.381          21.95          56.44           7.98          1.003         -137.7          58.32          140.9          102.5          66.95
    0.5267              -52.04          4.526           21.9          56.32          7.817          1.106         -136.4          58.36          140.2          102.6           67.2
    0.5406               -52.0          4.704          21.83          56.18          7.618          1.232         -134.7          58.41          139.2          102.7          67.51
    0.5544              -51.94          4.924          21.75           56.0          7.373          1.388         -132.7          58.48          138.0          102.9          67.89
    0.5683              -51.88          5.197          21.64          55.78          7.067          1.582         -130.1          58.55          136.6          103.1          68.37
    0.5821              -51.79          5.542          21.51           55.5          6.681          1.827         -126.9          58.65          134.7          103.4          68.97
